# xmcd CD database file
#
# Track frame offsets:
#	150
#	13741
#	26123
#	39556
#	60016
#	78390
#	95036
#	112544
#	132245
#	146026
#	158071
#	172802
#	191001
#	210169
#	223480
#	236092
#	250988
#	265799
#	280658
#	297616
#	309756
#	324755
#	336176
#	350616
#
# Disc length: 4798 seconds
#
# Revision: 0
# Processed by: cddbd v1.5.1PL0 Copyright (c) Steve Scherf et al.
# Submitted via: Feurio! 1.68 - http://www.feurio.com
#
DISCID=5612bc18
DTITLE=Mark Lanegan Band - Bubblegum Here Comes That Weird Chill
DYEAR=1900
DGENRE=
TTITLE0=Mark Lanegan - When Your Number Is Up
TTITLE1=Mark Lanegan - Hit The City
TTITLE2=Mark Lanegan - Wedding Dress
TTITLE3=Mark Lanegan - One Hundred Days
TTITLE4=Mark Lanegan - Strange Religion
TTITLE5=Mark Lanegan - Come To Me
TTITLE6=Mark Lanegan - Like Little Willie John
TTITLE7=Mark Lanegan - Morning Glory Wine
TTITLE8=Mark Lanegan - Head
TTITLE9=Mark Lanegan - Out Of Nowhere
TTITLE10=Methamphetamine Blues
TTITLE11=Skeletal History
TTITLE12=Sleep With Me - Version
TTITLE13=Mark Lanegan - Carry Home
TTITLE14=Mark Lanegan - I'll Take Care of You
TTITLE15=Mark Lanegan - Shiloh Town
TTITLE16=Mark Lanegan - Creeeping Coastline of Lights
TTITLE17=Mark Lanegan - Badi-Da
TTITLE18=Mark Lanegan - Consider Me
TTITLE19=Mark Lanegan - On Jesus' Program
TTITLE20=Mark Lanegan - Little Sadie
TTITLE21=Mark Lanegan - Together Again
TTITLE22=Mark Lanegan - Shanty Man's Life
TTITLE23=Mark Lanegan - Boogie Boogie
EXTD=
EXTT0=ESCAPE
EXTT1=ESCAPE
EXTT2=ESCAPE
EXTT3=ESCAPE
EXTT4=ESCAPE
EXTT5=ESCAPE
EXTT6=ESCAPE
EXTT7=ESCAPE
EXTT8=ESCAPE
EXTT9=ESCAPE
EXTT10=
EXTT11=
EXTT12=
EXTT13=Fdk
EXTT14=Fdk
EXTT15=Fdk
EXTT16=Fdk
EXTT17=Fdk
EXTT18=Fdk
EXTT19=Fdk
EXTT20=Fdk
EXTT21=Fdk
EXTT22=Fdk
EXTT23=Fdk
PLAYORDER=
